REM DIRINDEX 1\2,1\3
REM DIRNAME cjc039,folder01,folder02
TITLE ""
FILE "2381-2400.mp3" MP3
  TRACK 01 AUDIO
    TITLE "0:"
    INDEX 01 00:00:00
  TRACK 02 AUDIO
    TITLE "2:cjc039_3761"
    INDEX 01 00:00:27
  TRACK 03 AUDIO
    TITLE "0:"
    INDEX 01 00:01:28
  TRACK 04 AUDIO
    TITLE "3:cjc039_3762"
    INDEX 01 00:02:04
  TRACK 05 AUDIO
    TITLE "0:"
    INDEX 01 00:04:60
  TRACK 06 AUDIO
    TITLE "2:cjc039_3763"
    INDEX 01 00:06:35
  TRACK 07 AUDIO
    TITLE "0:"
    INDEX 01 00:07:72
  TRACK 08 AUDIO
    TITLE "3:cjc039_3764"
    INDEX 01 00:08:44
  TRACK 09 AUDIO
    TITLE "0:"
    INDEX 01 00:11:74
  TRACK 10 AUDIO
    TITLE "2:cjc039_3765"
    INDEX 01 00:13:47
  TRACK 11 AUDIO
    TITLE "0:"
    INDEX 01 00:14:66
  TRACK 12 AUDIO
    TITLE "3:cjc039_3766"
    INDEX 01 00:15:36
  TRACK 13 AUDIO
    TITLE "0:"
    INDEX 01 00:18:37
  TRACK 14 AUDIO
    TITLE "2:cjc039_3767"
    INDEX 01 00:20:10
  TRACK 15 AUDIO
    TITLE "0:"
    INDEX 01 00:21:53
  TRACK 16 AUDIO
    TITLE "3:cjc039_3768"
    INDEX 01 00:22:29
  TRACK 17 AUDIO
    TITLE "0:"
    INDEX 01 00:26:24
  TRACK 18 AUDIO
    TITLE "2:cjc039_3769"
    INDEX 01 00:27:71
  TRACK 19 AUDIO
    TITLE "0:"
    INDEX 01 00:29:13
  TRACK 20 AUDIO
    TITLE "3:cjc039_3770"
    INDEX 01 00:29:66
  TRACK 21 AUDIO
    TITLE "0:"
    INDEX 01 00:33:17
  TRACK 22 AUDIO
    TITLE "2:cjc039_3771"
    INDEX 01 00:34:63
  TRACK 23 AUDIO
    TITLE "0:"
    INDEX 01 00:36:19
  TRACK 24 AUDIO
    TITLE "3:cjc039_3772"
    INDEX 01 00:36:66
  TRACK 25 AUDIO
    TITLE "0:"
    INDEX 01 00:40:19
  TRACK 26 AUDIO
    TITLE "2:cjc039_3773"
    INDEX 01 00:41:67
  TRACK 27 AUDIO
    TITLE "0:"
    INDEX 01 00:43:01
  TRACK 28 AUDIO
    TITLE "3:cjc039_3774"
    INDEX 01 00:43:52
  TRACK 29 AUDIO
    TITLE "0:"
    INDEX 01 00:47:21
  TRACK 30 AUDIO
    TITLE "2:cjc039_3775"
    INDEX 01 00:48:65
  TRACK 31 AUDIO
    TITLE "0:"
    INDEX 01 00:50:15
  TRACK 32 AUDIO
    TITLE "3:cjc039_3776"
    INDEX 01 00:50:66
  TRACK 33 AUDIO
    TITLE "0:"
    INDEX 01 00:54:70
  TRACK 34 AUDIO
    TITLE "2:cjc039_3777"
    INDEX 01 00:56:45
  TRACK 35 AUDIO
    TITLE "0:"
    INDEX 01 00:57:45
  TRACK 36 AUDIO
    TITLE "3:cjc039_3778"
    INDEX 01 00:58:26
  TRACK 37 AUDIO
    TITLE "0:"
    INDEX 01 01:01:17
  TRACK 38 AUDIO
    TITLE "2:cjc039_3779"
    INDEX 01 01:02:67
  TRACK 39 AUDIO
    TITLE "0:"
    INDEX 01 01:04:27
  TRACK 40 AUDIO
    TITLE "3:cjc039_3780"
    INDEX 01 01:05:01
  TRACK 41 AUDIO
    TITLE "0:"
    INDEX 01 01:08:70
  TRACK 42 AUDIO
    TITLE "2:cjc039_3781"
    INDEX 01 01:10:39
  TRACK 43 AUDIO
    TITLE "0:"
    INDEX 01 01:13:40
  TRACK 44 AUDIO
    TITLE "3:cjc039_3782"
    INDEX 01 01:14:19
  TRACK 45 AUDIO
    TITLE "0:"
    INDEX 01 01:17:20
  TRACK 46 AUDIO
    TITLE "2:cjc039_3783"
    INDEX 01 01:18:70
  TRACK 47 AUDIO
    TITLE "0:"
    INDEX 01 01:20:16
  TRACK 48 AUDIO
    TITLE "3:cjc039_3784"
    INDEX 01 01:20:69
  TRACK 49 AUDIO
    TITLE "0:"
    INDEX 01 01:23:65
  TRACK 50 AUDIO
    TITLE "2:cjc039_3785"
    INDEX 01 01:25:47
  TRACK 51 AUDIO
    TITLE "0:"
    INDEX 01 01:26:44
  TRACK 52 AUDIO
    TITLE "3:cjc039_3786"
    INDEX 01 01:27:26
  TRACK 53 AUDIO
    TITLE "0:"
    INDEX 01 01:29:74
  TRACK 54 AUDIO
    TITLE "2:cjc039_3787"
    INDEX 01 01:31:51
  TRACK 55 AUDIO
    TITLE "0:"
    INDEX 01 01:32:72
  TRACK 56 AUDIO
    TITLE "3:cjc039_3788"
    INDEX 01 01:33:48
  TRACK 57 AUDIO
    TITLE "0:"
    INDEX 01 01:36:29
  TRACK 58 AUDIO
    TITLE "2:cjc039_3789"
    INDEX 01 01:38:04
  TRACK 59 AUDIO
    TITLE "0:"
    INDEX 01 01:39:10
  TRACK 60 AUDIO
    TITLE "3:cjc039_3790"
    INDEX 01 01:39:63
  TRACK 61 AUDIO
    TITLE "0:"
    INDEX 01 01:42:41
  TRACK 62 AUDIO
    TITLE "2:cjc039_3791"
    INDEX 01 01:44:11
  TRACK 63 AUDIO
    TITLE "0:"
    INDEX 01 01:45:26
  TRACK 64 AUDIO
    TITLE "3:cjc039_3792"
    INDEX 01 01:46:08
  TRACK 65 AUDIO
    TITLE "0:"
    INDEX 01 01:49:06
  TRACK 66 AUDIO
    TITLE "2:cjc039_3793"
    INDEX 01 01:50:54
  TRACK 67 AUDIO
    TITLE "0:"
    INDEX 01 01:51:64
  TRACK 68 AUDIO
    TITLE "3:cjc039_3794"
    INDEX 01 01:52:44
  TRACK 69 AUDIO
    TITLE "0:"
    INDEX 01 01:55:20
  TRACK 70 AUDIO
    TITLE "2:cjc039_3795"
    INDEX 01 01:56:73
  TRACK 71 AUDIO
    TITLE "0:"
    INDEX 01 01:58:05
  TRACK 72 AUDIO
    TITLE "3:cjc039_3796"
    INDEX 01 01:58:60
  TRACK 73 AUDIO
    TITLE "0:"
    INDEX 01 02:02:34
  TRACK 74 AUDIO
    TITLE "2:cjc039_3797"
    INDEX 01 02:04:10
  TRACK 75 AUDIO
    TITLE "0:"
    INDEX 01 02:05:15
  TRACK 76 AUDIO
    TITLE "3:cjc039_3798"
    INDEX 01 02:05:64
  TRACK 77 AUDIO
    TITLE "0:"
    INDEX 01 02:08:72
  TRACK 78 AUDIO
    TITLE "2:cjc039_3799"
    INDEX 01 02:10:49
  TRACK 79 AUDIO
    TITLE "0:"
    INDEX 01 02:11:74
  TRACK 80 AUDIO
    TITLE "3:cjc039_3800"
    INDEX 01 02:12:52
  TRACK 81 AUDIO
    TITLE "0:"
    INDEX 01 02:15:51
